<svg width="89" height="26" viewBox="0 0 89 26" fill="none" xmlns="http://www.w3.org/2000/svg">
<path d="M15.974 3.84998H9.87V21H6.104V3.84998H0V0.755983H15.974V3.84998Z" fill="#F5F9FC"/>
<path d="M18.5227 9.12798C18.9707 8.26932 19.5027 7.59732 20.1187 7.11198C20.7347 6.61732 21.4627 6.36998 22.3027 6.36998C22.9653 6.36998 23.4973 6.51465 23.8987 6.80398L23.6747 9.39398C23.628 9.56198 23.558 9.68332 23.4647 9.75798C23.3807 9.82332 23.264 9.85598 23.1147 9.85598C22.9747 9.85598 22.7647 9.83265 22.4847 9.78598C22.214 9.73932 21.948 9.71598 21.6867 9.71598C21.304 9.71598 20.9633 9.77198 20.6647 9.88398C20.366 9.99598 20.0953 10.1593 19.8527 10.374C19.6193 10.5793 19.4093 10.8313 19.2227 11.13C19.0453 11.4287 18.8773 11.7693 18.7187 12.152V21H15.2607V6.63598H17.2907C17.6453 6.63598 17.8927 6.70132 18.0327 6.83198C18.1727 6.95332 18.266 7.17732 18.3127 7.50398L18.5227 9.12798Z" fill="#F5F9FC"/>
<path d="M33.1026 14.868C32.1039 14.9147 31.2639 15.0033 30.5826 15.134C29.9012 15.2553 29.3552 15.414 28.9446 15.61C28.5339 15.806 28.2399 16.0347 28.0626 16.296C27.8852 16.5573 27.7966 16.842 27.7966 17.15C27.7966 17.7567 27.9739 18.1907 28.3286 18.452C28.6926 18.7133 29.1639 18.844 29.7426 18.844C30.4519 18.844 31.0632 18.718 31.5766 18.466C32.0992 18.2047 32.6079 17.8127 33.1026 17.29V14.868ZM25.1786 8.63798C26.8306 7.12598 28.8186 6.36998 31.1426 6.36998C31.9826 6.36998 32.7339 6.50998 33.3966 6.78998C34.0592 7.06065 34.6192 7.44332 35.0766 7.93798C35.5339 8.42332 35.8792 9.00665 36.1126 9.68798C36.3552 10.3693 36.4766 11.116 36.4766 11.928V21H34.9086C34.5819 21 34.3299 20.9533 34.1526 20.86C33.9752 20.7573 33.8352 20.5567 33.7326 20.258L33.4246 19.222C33.0606 19.5487 32.7059 19.838 32.3606 20.09C32.0152 20.3327 31.6559 20.538 31.2826 20.706C30.9092 20.874 30.5079 21 30.0786 21.084C29.6586 21.1773 29.1919 21.224 28.6786 21.224C28.0719 21.224 27.5119 21.1447 26.9986 20.986C26.4852 20.818 26.0419 20.5707 25.6686 20.244C25.2952 19.9173 25.0059 19.5113 24.8006 19.026C24.5952 18.5407 24.4926 17.976 24.4926 17.332C24.4926 16.968 24.5532 16.6087 24.6746 16.254C24.7959 15.89 24.9919 15.5447 25.2626 15.218C25.5426 14.8913 25.9019 14.5833 26.3406 14.294C26.7792 14.0047 27.3159 13.7527 27.9506 13.538C28.5946 13.3233 29.3412 13.1507 30.1906 13.02C31.0399 12.88 32.0106 12.796 33.1026 12.768V11.928C33.1026 10.9667 32.8972 10.2573 32.4866 9.79998C32.0759 9.33332 31.4832 9.09998 30.7086 9.09998C30.1486 9.09998 29.6819 9.16532 29.3086 9.29598C28.9446 9.42665 28.6226 9.57598 28.3426 9.74398C28.0626 9.90265 27.8059 10.0473 27.5726 10.178C27.3486 10.3087 27.0966 10.374 26.8166 10.374C26.5739 10.374 26.3686 10.3133 26.2006 10.192C26.0326 10.0613 25.8972 9.91198 25.7946 9.74398L25.1786 8.63798Z" fill="#F5F9FC"/>
<path d="M52.3552 6.63598L46.6572 21H43.5212L37.8232 6.63598H40.6792C40.9405 6.63598 41.1552 6.69665 41.3232 6.81798C41.5005 6.93932 41.6172 7.09332 41.6732 7.27998L44.4452 14.952C44.5945 15.4 44.7252 15.8387 44.8372 16.268C44.9492 16.6973 45.0472 17.1267 45.1312 17.556C45.2245 17.1267 45.3272 16.6973 45.4392 16.268C45.5512 15.8387 45.6865 15.4 45.8452 14.952L48.6732 7.27998C48.7385 7.09332 48.8552 6.93932 49.0232 6.81798C49.1912 6.69665 49.3919 6.63598 49.6252 6.63598H52.3552Z" fill="#F5F9FC"/>
<path d="M63.0147 12.166C63.0147 11.718 62.9493 11.298 62.8187 10.906C62.6973 10.5047 62.5107 10.1547 62.2587 9.85598C62.0067 9.55732 61.6847 9.32398 61.2927 9.15598C60.91 8.97865 60.462 8.88998 59.9487 8.88998C58.95 8.88998 58.1613 9.17465 57.5827 9.74398C57.0133 10.3133 56.6493 11.1207 56.4907 12.166H63.0147ZM56.4207 14.252C56.4767 14.9893 56.6073 15.6287 56.8127 16.17C57.018 16.702 57.2887 17.1453 57.6247 17.5C57.9607 17.8453 58.3573 18.1067 58.8147 18.284C59.2813 18.452 59.7947 18.536 60.3547 18.536C60.9147 18.536 61.3953 18.4707 61.7967 18.34C62.2073 18.2093 62.562 18.0647 62.8607 17.906C63.1687 17.7473 63.4347 17.6027 63.6587 17.472C63.892 17.3413 64.116 17.276 64.3307 17.276C64.62 17.276 64.8347 17.3833 64.9747 17.598L65.9687 18.858C65.586 19.306 65.1567 19.684 64.6807 19.992C64.2047 20.2907 63.7053 20.5333 63.1827 20.72C62.6693 20.8973 62.142 21.0233 61.6007 21.098C61.0687 21.1727 60.5507 21.21 60.0467 21.21C59.048 21.21 58.1193 21.0466 57.2607 20.72C56.402 20.384 55.6553 19.894 55.0207 19.25C54.386 18.5967 53.8867 17.794 53.5227 16.842C53.1587 15.8807 52.9767 14.77 52.9767 13.51C52.9767 12.53 53.1353 11.6107 53.4527 10.752C53.77 9.88398 54.2227 9.13265 54.8107 8.49798C55.408 7.85398 56.1313 7.34532 56.9807 6.97198C57.8393 6.59865 58.8053 6.41198 59.8787 6.41198C60.784 6.41198 61.6193 6.55665 62.3847 6.84598C63.15 7.13532 63.808 7.55998 64.3587 8.11998C64.9093 8.67065 65.3387 9.35198 65.6467 10.164C65.964 10.9667 66.1227 11.886 66.1227 12.922C66.1227 13.4447 66.0667 13.7993 65.9547 13.986C65.8427 14.1633 65.628 14.252 65.3107 14.252H56.4207Z" fill="#F5F9FC"/>
<path d="M72.2177 0.195984V21H68.7597V0.195984H72.2177Z" fill="#F5F9FC"/>
<path d="M88.711 6.63598L80.885 24.948C80.7823 25.1907 80.647 25.3727 80.479 25.494C80.3203 25.6247 80.073 25.69 79.737 25.69H77.161L79.849 19.922L74.039 6.63598H77.077C77.3477 6.63598 77.5577 6.70132 77.707 6.83198C77.8657 6.96265 77.9823 7.11198 78.057 7.27998L81.109 14.728C81.2117 14.98 81.2957 15.232 81.361 15.484C81.4357 15.736 81.5057 15.9927 81.571 16.254C81.655 15.9927 81.739 15.736 81.823 15.484C81.907 15.2227 82.0003 14.966 82.103 14.714L84.987 7.27998C85.0617 7.09332 85.183 6.93932 85.351 6.81798C85.5283 6.69665 85.7243 6.63598 85.939 6.63598H88.711Z" fill="#F5F9FC"/>
</svg>
